<svg width="36" height="36" viewBox="0 0 36 36" fill="none" xmlns="http://www.w3.org/2000/svg">
<g clip-path="url(#clip0_32_63)">
<path d="M18 36C27.9411 36 36 27.9411 36 18C36 8.05887 27.9411 0 18 0C8.05887 0 0 8.05887 0 18C0 27.9411 8.05887 36 18 36Z" fill="#039BE5"/>
<path d="M8.23653 17.6101L25.5915 10.9186C26.397 10.6276 27.1005 11.1151 26.8395 12.3331L26.841 12.3316L23.886 26.2531C23.667 27.2401 23.0805 27.4801 22.26 27.0151L17.76 23.6986L15.5895 25.7896C15.3495 26.0296 15.147 26.2321 14.682 26.2321L15.0015 21.6526L23.3415 14.1181C23.7045 13.7986 23.2605 13.6186 22.782 13.9366L12.4755 20.4256L8.03253 19.0396C7.06803 18.7336 7.04703 18.0751 8.23653 17.6101Z" fill="#F5F5F5"/>
</g>
<defs>
<clipPath id="clip0_32_63">
<rect width="36" height="36" fill="white"/>
</clipPath>
</defs>
</svg>
