<svg width="36" height="36" viewBox="0 0 36 36" fill="none" xmlns="http://www.w3.org/2000/svg">
<g clip-path="url(#clip0_32_56)">
<path d="M18 36C27.9411 36 36 27.9411 36 18C36 8.05888 27.9411 0 18 0C8.05888 0 0 8.05888 0 18C0 27.9411 8.05888 36 18 36Z" fill="#4D76A1"/>
<path fill-rule="evenodd" clip-rule="evenodd" d="M17.3201 25.8947H18.7329C18.7329 25.8947 19.1596 25.8479 19.3775 25.613C19.578 25.3974 19.5716 24.9924 19.5716 24.9924C19.5716 24.9924 19.544 23.0967 20.4238 22.8176C21.2912 22.5426 22.4049 24.6497 23.5854 25.4599C24.478 26.0731 25.1563 25.9387 25.1563 25.9387L28.3127 25.8947C28.3127 25.8947 29.9639 25.793 29.181 24.4948C29.1168 24.3886 28.725 23.5344 26.8341 21.7793C24.855 19.9423 25.1201 20.2394 27.5041 17.0619C28.956 15.1267 29.5365 13.9453 29.3552 13.4393C29.1822 12.9573 28.1144 13.0847 28.1144 13.0847L24.5605 13.1069C24.5605 13.1069 24.297 13.0709 24.1016 13.1877C23.9107 13.3023 23.7878 13.5692 23.7878 13.5692C23.7878 13.5692 23.2253 15.0667 22.4752 16.3402C20.8926 19.0275 20.2599 19.1693 20.0013 19.0025C19.3996 18.6136 19.5498 17.4402 19.5498 16.6066C19.5498 14.0024 19.9448 12.9166 18.7807 12.6355C18.3944 12.5421 18.1101 12.4805 17.1221 12.4706C15.8541 12.4574 14.7808 12.4744 14.173 12.7722C13.7687 12.9702 13.4569 13.4114 13.6468 13.4367C13.8817 13.4682 14.4137 13.5802 14.6957 13.9642C15.0599 14.4596 15.0471 15.5724 15.0471 15.5724C15.0471 15.5724 15.2563 18.638 14.5584 19.0188C14.0793 19.28 13.4222 18.7468 12.0114 16.3088C11.2884 15.06 10.7426 13.6796 10.7426 13.6796C10.7426 13.6796 10.6374 13.4216 10.4497 13.2837C10.2219 13.1165 9.90358 13.0632 9.90358 13.0632L6.52646 13.0854C6.52646 13.0854 6.01949 13.0995 5.83338 13.3199C5.66782 13.516 5.82023 13.9216 5.82023 13.9216C5.82023 13.9216 8.46417 20.1072 11.4579 23.2245C14.2029 26.0824 17.3201 25.8947 17.3201 25.8947Z" fill="#F5F5F5"/>
</g>
<defs>
<clipPath id="clip0_32_56">
<rect width="36" height="36" fill="white"/>
</clipPath>
</defs>
</svg>
