<svg width="36" height="36" viewBox="0 0 36 36" fill="none" xmlns="http://www.w3.org/2000/svg">
<path d="M18.0045 0H17.9955C8.07075 0 0 8.073 0 18C0 21.9375 1.269 25.587 3.42675 28.5503L1.1835 35.2373L8.10225 33.0255C10.9485 34.911 14.3438 36 18.0045 36C27.9292 36 36 27.9247 36 18C36 8.07525 27.9292 0 18.0045 0Z" fill="#4CAF50"/>
<path d="M28.4782 25.4182C28.044 26.6444 26.3205 27.6614 24.9457 27.9584C24.0052 28.1587 22.7767 28.3184 18.6412 26.6039C13.3515 24.4124 9.94499 19.0372 9.67949 18.6884C9.42524 18.3397 7.54199 15.8422 7.54199 13.2592C7.54199 10.6762 8.85374 9.41842 9.38249 8.87842C9.81674 8.43517 10.5345 8.23267 11.223 8.23267C11.4457 8.23267 11.646 8.24392 11.826 8.25292C12.3547 8.27542 12.6202 8.30692 12.969 9.14167C13.4032 10.1879 14.4607 12.7709 14.5867 13.0364C14.715 13.3019 14.8432 13.6619 14.6632 14.0107C14.4945 14.3707 14.346 14.5304 14.0805 14.8364C13.815 15.1424 13.563 15.3764 13.2975 15.7049C13.0545 15.9907 12.78 16.2967 13.086 16.8254C13.392 17.3429 14.4495 19.0687 16.0065 20.4547C18.0157 22.2434 19.6447 22.8149 20.2275 23.0579C20.6617 23.2379 21.1792 23.1952 21.4965 22.8577C21.8992 22.4234 22.3965 21.7034 22.9027 20.9947C23.2627 20.4862 23.7172 20.4232 24.1942 20.6032C24.6802 20.7719 27.252 22.0432 27.7807 22.3064C28.3095 22.5719 28.6582 22.6979 28.7865 22.9207C28.9125 23.1434 28.9125 24.1897 28.4782 25.4182Z" fill="#F5F5F5"/>
</svg>
