<svg width="87" height="19" viewBox="0 0 87 19" fill="none" xmlns="http://www.w3.org/2000/svg">
<path d="M68.0923 19V9.5C68.1246 4.24283 72.348 -0.00134232 77.5458 3.76712e-05V3.80941C74.4344 3.81419 71.9076 6.35314 71.8824 9.5V19H68.0923ZM62.4063 19V3.80941H56.7437C54.7225 3.79253 52.8477 4.87349 51.8322 6.64116C50.8168 8.40883 50.8168 10.5916 51.8322 12.3592C52.8477 14.1269 54.7225 15.2079 56.7437 15.191H60.8039V19H56.7437C51.5458 19.0016 47.3223 14.7573 47.2902 9.5C47.3225 4.24283 51.5459 -0.00134232 56.7437 3.76712e-05H66.1971V19H62.4063ZM41.6058 19V9.49962C41.5895 6.66272 39.521 4.26599 36.7441 3.86639V0.0349259C41.614 0.45208 45.3657 4.55652 45.3954 9.49962V19H41.6058ZM26.487 19V9.49962C26.5168 4.5557 30.2698 0.450945 35.1406 0.0349259V3.86639C32.3632 4.26547 30.2942 6.66234 30.2778 9.49962V19H26.487ZM20.8021 19V5.42006H24.5922V19H20.8021ZM18.9061 19H11.0704V15.1906H18.9073V19H18.9061ZM9.46611 19H9.45308C6.94913 19.0045 4.5465 18.0002 2.77634 16.2089C1.00009 14.4386 0 12.0217 0 9.49942C0 6.97716 1.00009 4.56026 2.77634 2.7899C4.54687 0.998913 6.94979 -0.00502739 9.45384 1.89324e-05H18.9073V3.80902H9.45384C7.95381 3.80616 6.5144 4.40764 5.45378 5.48053C4.38955 6.54103 3.79033 7.98895 3.79033 9.5C3.79033 11.0111 4.38955 12.459 5.45378 13.5195C6.51459 14.592 7.9539 15.1934 9.45384 15.1906H9.46687V19H9.46611ZM79.1489 3.80941V3.80078e-05H87V3.80941H79.1489ZM20.8025 3.80941V3.80078e-05H24.5925V3.80941H20.8025Z" fill="#13389F"/>
</svg>
